
<svg version="1.0" xmlns="http://www.w3.org/2000/svg"
 width="200.000000pt" height="200.000000pt" viewBox="0 0 200.000000 200.000000"
 preserveAspectRatio="xMidYMid meet">
<g transform="translate(0.000000,200.000000) scale(0.004630,-0.004400)"
fill="#000000" stroke="none">
<path d="M16785 45374 c-1798 -517 -3434 -1201 -5035 -2104 -2924 -1650 -5516
-3986 -7477 -6739 -3025 -4247 -4522 -9424 -4238 -14661 267 -4924 2075 -9585
5193 -13390 793 -968 1711 -1917 2647 -2740 1969 -1729 4192 -3098 6610 -4070
3130 -1258 6522 -1818 9905 -1635 2909 158 5725 851 8375 2060 317 145 1029
500 1335 665 3576 1934 6593 4782 8725 8235 140 226 376 628 371 632 -2 2
-102 -61 -222 -140 -2779 -1829 -5928 -2974 -9254 -3366 -539 -64 -1417 -131
-1716 -131 l-81 0 -30 38 c-103 128 -345 270 -578 337 -209 60 -526 92 -765
77 -74 -5 -138 -7 -142 -3 -10 10 -66 294 -83 431 -22 168 -32 457 -23 697 22
641 184 1409 482 2288 202 599 392 1067 876 2170 298 679 402 942 446 1130 17
70 19 122 19 415 -1 184 -6 416 -13 515 -45 632 -122 1433 -286 2965 -303
2822 -394 3844 -436 4875 -6 138 -15 295 -21 350 -62 581 -295 1213 -687 1860
-491 810 -1228 1634 -2057 2300 -704 565 -1352 917 -1735 942 -177 11 -252
-31 -332 -183 -55 -104 -71 -185 -65 -319 9 -190 46 -297 252 -730 73 -154
148 -323 168 -375 134 -360 118 -631 -52 -865 -20 -27 -103 -120 -185 -205
-468 -486 -642 -723 -1213 -1655 -88 -143 -216 -348 -285 -455 -163 -254 -226
-367 -287 -516 -256 -621 -82 -1111 515 -1455 475 -274 1279 -462 2167 -508
92 -5 170 -11 172 -13 3 -3 -16 -20 -43 -39 -26 -18 -175 -132 -332 -253
-1615 -1243 -2838 -2339 -3394 -3041 -275 -348 -492 -760 -906 -1720 -505
-1174 -699 -1540 -1101 -2080 -731 -983 -1187 -2298 -1379 -3974 -11 -96 -21
-176 -23 -178 -12 -12 -708 415 -1127 691 -357 236 -919 630 -935 656 -2 4 11
65 30 136 102 385 222 702 450 1189 264 563 457 1036 635 1560 634 1865 763
3468 348 4300 -128 255 -320 456 -543 567 -322 162 -731 179 -1236 53 -467
-117 -713 -247 -805 -427 -36 -70 -44 -187 -19 -273 66 -229 259 -449 755
-860 259 -215 331 -288 426 -436 340 -525 362 -1232 65 -2129 -149 -447 -318
-822 -626 -1385 -229 -418 -522 -1024 -626 -1292 -13 -35 -28 -63 -33 -63 -4
0 -96 78 -204 173 -696 612 -1364 1278 -1963 1957 -2263 2566 -3867 5606
-4697 8905 -630 2501 -804 5067 -517 7640 224 2009 736 3993 1510 5850 945
2264 2245 4310 3903 6140 463 512 1095 1138 1575 1564 64 57 117 108 117 113
0 4 -1 8 -2 7 -2 0 -120 -34 -263 -75z m10478 -20076 c10 -35 -11 -167 -39
-251 -61 -183 -187 -308 -364 -361 -208 -63 -380 -29 -522 102 -113 105 -267
317 -245 338 5 5 1108 190 1148 193 9 1 19 -9 22 -21z"/>
<path d="M17400 32100 c-580 -61 -1110 -311 -1515 -715 -380 -380 -618 -858
-702 -1412 -23 -154 -23 -517 0 -678 132 -899 725 -1648 1559 -1969 302 -116
550 -161 893 -161 415 0 729 72 1090 249 266 131 457 267 660 471 663 662 895
1642 599 2533 -55 167 -188 440 -281 579 -246 368 -562 649 -943 842 -241 122
-505 206 -770 246 -124 19 -469 27 -590 15z"/>
</g>
</svg>
